<?xml version="1.0" encoding="UTF-8" standalone="no"?>
<svg
   xmlns:svg="http://www.w3.org/2000/svg"
   xmlns="http://www.w3.org/2000/svg"
   xml:space="preserve"
   version="1.1"
   style="shape-rendering:geometricPrecision; text-rendering:geometricPrecision; image-rendering:optimizeQuality; fill-rule:evenodd; clip-rule:evenodd"
   viewBox="0 0 21404 21404">
 <defs
   id="defs4">
  <style type="text/css">
    .fil1 {fill:#FEFEFE}
    .fil0 {fill:black}
    .fil2 {fill:white}
  </style>
 </defs>
 <g
   id="Layer_x0020_1">
  <metadata
   id="CorelCorpID_0Corel-Layer" />
  <g
   id="_833871744">
   <circle
   class="fil1"
   cx="10646"
   cy="10690"
   r="10483"
   id="circle13" />
   <path
   class="fil0"
   d="M10690 0c5904,0 10690,4786 10690,10690 0,5904 -4786,10690 -10690,10690 -5904,0 -10690,-4786 -10690,-10690 0,-5904 4786,-10690 10690,-10690zm-108 553c-50,0 -100,1 -150,2 -5528,80 -9989,4590 -9989,10136 0,5553 4471,10066 10008,10136 -2738,-69 -4938,-2313 -4938,-5067 0,-2798 2271,-5069 5069,-5069 2798,0 5069,-2271 5069,-5069 0,-2798 -2271,-5069 -5069,-5069z"
   id="path15" />
   <path
   class="fil0"
   d="M8982 6619l0 -3779c0,-165 60,-308 181,-428 120,-120 263,-181 429,-181l1970 0c163,0 304,60 423,181 119,120 178,263 178,428l0 3779c0,168 -60,311 -178,430 -119,119 -263,178 -431,178l-1962 0c-170,0 -315,-59 -433,-178 -118,-119 -176,-262 -176,-430zm2557 -23l0 -3725 -1925 0 0 3725 1925 0z"
   id="path17" />
   <path
   class="fil2"
   d="M9702 18043l970 0 0 -3725 -954 0c-88,0 -162,-31 -224,-92 -62,-61 -92,-136 -92,-224 0,-87 31,-162 92,-223 61,-61 136,-92 224,-92l1586 0 0 4357 632 0 0 -1315c0,-85 31,-159 92,-222 61,-63 136,-94 223,-94 88,0 163,31 224,92 61,62 92,136 92,224l0 1631c0,88 -31,163 -92,225 -61,61 -135,91 -224,91l-2549 0c-88,0 -162,-32 -223,-95 -62,-64 -92,-140 -92,-228 0,-85 31,-158 92,-219 61,-60 136,-90 223,-90z"
   id="path19" />
  </g>
 </g>
</svg>